<svg xmlns="http://www.w3.org/2000/svg" xmlns:xlink="http://www.w3.org/1999/xlink" width="308" zoomAndPan="magnify" viewBox="0 0 230.87999 254.250006" height="339" preserveAspectRatio="xMidYMid meet" version="1.0"><defs><g/><clipPath id="3d42928cee"><path d="M 75.058594 84.441406 L 155.820312 84.441406 L 155.820312 178.660156 L 75.058594 178.660156 Z M 75.058594 84.441406 " clip-rule="nonzero"/></clipPath></defs><g fill="#4261f1" fill-opacity="1"><g transform="translate(75.059109, 90.796096)"><g><path d="M 2.09375 0.078125 C 1.800781 0.078125 1.566406 -0.00390625 1.390625 -0.171875 C 1.222656 -0.335938 1.140625 -0.554688 1.140625 -0.828125 C 1.140625 -1.097656 1.222656 -1.320312 1.390625 -1.5 C 1.566406 -1.675781 1.800781 -1.765625 2.09375 -1.765625 C 2.394531 -1.765625 2.628906 -1.679688 2.796875 -1.515625 C 2.972656 -1.347656 3.0625 -1.125 3.0625 -0.84375 C 3.0625 -0.570312 2.972656 -0.347656 2.796875 -0.171875 C 2.628906 -0.00390625 2.394531 0.078125 2.09375 0.078125 Z M 2.09375 0.078125 "/></g></g></g><g clip-path="url(#3d42928cee)"><path fill="#4261f1" d="M 127.851562 113.722656 C 129.59375 113.722656 131.015625 115.148438 131.015625 116.894531 C 131.015625 118.640625 129.59375 120.066406 127.851562 120.066406 C 126.109375 120.066406 124.683594 118.640625 124.683594 116.894531 C 124.683594 115.148438 126.078125 113.722656 127.851562 113.722656 Z M 103.027344 113.722656 C 104.769531 113.722656 106.195312 115.148438 106.195312 116.894531 C 106.195312 118.640625 104.769531 120.066406 103.027344 120.066406 C 101.289062 120.066406 99.863281 118.640625 99.863281 116.894531 C 99.863281 115.148438 101.289062 113.722656 103.027344 113.722656 Z M 78.238281 113.722656 C 79.980469 113.722656 81.402344 115.148438 81.402344 116.894531 C 81.402344 118.640625 79.980469 120.066406 78.238281 120.066406 C 76.496094 120.066406 75.070312 118.640625 75.070312 116.894531 C 75.070312 115.148438 76.496094 113.722656 78.238281 113.722656 Z M 152.640625 113.722656 C 154.382812 113.722656 155.808594 115.148438 155.808594 116.894531 C 155.808594 118.640625 154.382812 120.066406 152.640625 120.066406 C 150.902344 120.066406 149.476562 118.640625 149.476562 116.894531 C 149.476562 115.148438 150.902344 113.722656 152.640625 113.722656 Z M 127.851562 143.035156 C 129.59375 143.035156 131.015625 144.460938 131.015625 146.207031 C 131.015625 147.953125 129.59375 149.378906 127.851562 149.378906 C 126.109375 149.378906 124.683594 147.953125 124.683594 146.207031 C 124.683594 144.460938 126.078125 143.035156 127.851562 143.035156 Z M 103.027344 143.035156 C 104.769531 143.035156 106.195312 144.460938 106.195312 146.207031 C 106.195312 147.953125 104.769531 149.378906 103.027344 149.378906 C 101.289062 149.378906 99.863281 147.953125 99.863281 146.207031 C 99.863281 144.460938 101.289062 143.035156 103.027344 143.035156 Z M 78.238281 143.035156 C 79.980469 143.035156 81.402344 144.460938 81.402344 146.207031 C 81.402344 147.953125 79.980469 149.378906 78.238281 149.378906 C 76.496094 149.378906 75.070312 147.953125 75.070312 146.207031 C 75.070312 144.460938 76.496094 143.035156 78.238281 143.035156 Z M 152.640625 143.035156 C 154.382812 143.035156 155.808594 144.460938 155.808594 146.207031 C 155.808594 147.953125 154.382812 149.378906 152.640625 149.378906 C 150.902344 149.378906 149.476562 147.953125 149.476562 146.207031 C 149.476562 144.460938 150.902344 143.035156 152.640625 143.035156 Z M 127.851562 84.441406 C 129.59375 84.441406 131.015625 85.867188 131.015625 87.613281 C 131.015625 89.355469 129.59375 90.785156 127.851562 90.785156 C 126.109375 90.785156 124.683594 89.355469 124.683594 87.613281 C 124.683594 85.867188 126.078125 84.441406 127.851562 84.441406 Z M 103.027344 84.441406 C 104.769531 84.441406 106.195312 85.867188 106.195312 87.613281 C 106.195312 89.355469 104.769531 90.785156 103.027344 90.785156 C 101.289062 90.785156 99.863281 89.355469 99.863281 87.613281 C 99.863281 85.867188 101.289062 84.441406 103.027344 84.441406 Z M 78.238281 84.441406 C 79.980469 84.441406 81.402344 85.867188 81.402344 87.613281 C 81.402344 89.355469 79.980469 90.785156 78.238281 90.785156 C 76.496094 90.785156 75.070312 89.355469 75.070312 87.613281 C 75.070312 85.867188 76.496094 84.441406 78.238281 84.441406 Z M 152.640625 84.441406 C 154.382812 84.441406 155.808594 85.867188 155.808594 87.613281 C 155.808594 89.355469 154.382812 90.785156 152.640625 90.785156 C 150.902344 90.785156 149.476562 89.355469 149.476562 87.613281 C 149.476562 85.867188 150.902344 84.441406 152.640625 84.441406 Z M 127.851562 172.316406 C 129.59375 172.316406 131.015625 173.746094 131.015625 175.488281 C 131.015625 177.234375 129.59375 178.660156 127.851562 178.660156 C 126.109375 178.660156 124.683594 177.234375 124.683594 175.488281 C 124.683594 173.746094 126.078125 172.316406 127.851562 172.316406 Z M 103.027344 172.316406 C 104.769531 172.316406 106.195312 173.746094 106.195312 175.488281 C 106.195312 177.234375 104.769531 178.660156 103.027344 178.660156 C 101.289062 178.660156 99.863281 177.234375 99.863281 175.488281 C 99.863281 173.746094 101.289062 172.316406 103.027344 172.316406 Z M 78.238281 172.316406 C 79.980469 172.316406 81.402344 173.746094 81.402344 175.488281 C 81.402344 177.234375 79.980469 178.660156 78.238281 178.660156 C 76.496094 178.660156 75.070312 177.234375 75.070312 175.488281 C 75.070312 173.746094 76.496094 172.316406 78.238281 172.316406 Z M 152.640625 172.316406 C 154.382812 172.316406 155.808594 173.746094 155.808594 175.488281 C 155.808594 177.234375 154.382812 178.660156 152.640625 178.660156 C 150.902344 178.660156 149.476562 177.234375 149.476562 175.488281 C 149.476562 173.746094 150.902344 172.316406 152.640625 172.316406 Z M 152.640625 172.316406 " fill-opacity="1" fill-rule="nonzero"/></g></svg>