<svg id="term" xmlns="http://www.w3.org/2000/svg" xmlns:xlink="http://www.w3.org/1999/xlink" width="1276" zoomAndPan="magnify" viewBox="0 0 956.88 726.749996" height="969" preserveAspectRatio="xMidYMid meet" version="1.0"><defs><clipPath id="8daecee6fc"><path d="M 75.378906 75.027344 L 881.351562 75.027344 L 881.351562 651.578125 L 75.378906 651.578125 Z M 75.378906 75.027344 " clip-rule="nonzero"/></clipPath></defs><g clip-path="url(#8daecee6fc)"><path d="M 855.0625 651.195312 L 101.667969 651.195312 C 87.140625 651.195312 75.378906 639.429688 75.378906 624.894531 L 75.378906 101.714844 C 75.378906 87.179688 87.140625 75.410156 101.667969 75.410156 L 855.0625 75.410156 C 869.589844 75.410156 881.351562 87.179688 881.351562 101.714844 L 881.351562 624.894531 C 881.351562 639.429688 869.589844 651.195312 855.0625 651.195312 Z M 100.542969 135.109375 L 100.542969 615.464844 C 100.542969 629.480469 97.085938 627.75 111.09375 627.75 L 845.464844 627.75 C 859.472656 627.75 856.53125 629.566406 856.53125 615.464844 L 856.53125 135.109375 " fill-opacity="1" fill-rule="nonzero"/></g><path fill="#ed1c24" d="M 149.402344 106.296875 C 149.402344 106.859375 149.375 107.417969 149.320312 107.976562 C 149.265625 108.535156 149.183594 109.089844 149.074219 109.640625 C 148.964844 110.191406 148.828125 110.734375 148.667969 111.269531 C 148.503906 111.808594 148.316406 112.335938 148.101562 112.855469 C 147.886719 113.371094 147.644531 113.878906 147.382812 114.375 C 147.117188 114.867188 146.828125 115.347656 146.519531 115.816406 C 146.207031 116.28125 145.871094 116.734375 145.515625 117.167969 C 145.160156 117.601562 144.785156 118.015625 144.386719 118.410156 C 143.992188 118.808594 143.578125 119.183594 143.144531 119.539062 C 142.710938 119.898438 142.261719 120.230469 141.792969 120.542969 C 141.328125 120.855469 140.847656 121.140625 140.351562 121.40625 C 139.859375 121.671875 139.351562 121.910156 138.832031 122.125 C 138.316406 122.339844 137.789062 122.527344 137.25 122.691406 C 136.714844 122.855469 136.171875 122.992188 135.621094 123.101562 C 135.070312 123.210938 134.515625 123.292969 133.960938 123.347656 C 133.402344 123.402344 132.84375 123.429688 132.28125 123.429688 C 131.71875 123.429688 131.160156 123.402344 130.601562 123.347656 C 130.042969 123.292969 129.492188 123.210938 128.941406 123.101562 C 128.390625 122.992188 127.847656 122.855469 127.3125 122.691406 C 126.773438 122.527344 126.246094 122.339844 125.726562 122.125 C 125.210938 121.910156 124.703125 121.671875 124.210938 121.40625 C 123.714844 121.140625 123.234375 120.855469 122.769531 120.542969 C 122.300781 120.230469 121.851562 119.898438 121.417969 119.539062 C 120.984375 119.183594 120.570312 118.808594 120.171875 118.410156 C 119.777344 118.015625 119.402344 117.601562 119.046875 117.167969 C 118.6875 116.734375 118.355469 116.28125 118.042969 115.816406 C 117.734375 115.347656 117.445312 114.867188 117.179688 114.375 C 116.914062 113.878906 116.675781 113.371094 116.460938 112.855469 C 116.246094 112.335938 116.058594 111.808594 115.894531 111.269531 C 115.734375 110.734375 115.597656 110.191406 115.488281 109.640625 C 115.378906 109.089844 115.296875 108.535156 115.242188 107.976562 C 115.1875 107.417969 115.160156 106.859375 115.160156 106.296875 C 115.160156 105.738281 115.1875 105.179688 115.242188 104.621094 C 115.296875 104.0625 115.378906 103.507812 115.488281 102.957031 C 115.597656 102.40625 115.734375 101.863281 115.894531 101.324219 C 116.058594 100.789062 116.246094 100.261719 116.460938 99.742188 C 116.675781 99.222656 116.914062 98.71875 117.179688 98.222656 C 117.445312 97.726562 117.734375 97.246094 118.042969 96.78125 C 118.355469 96.316406 118.6875 95.863281 119.046875 95.429688 C 119.402344 94.996094 119.777344 94.582031 120.171875 94.183594 C 120.570312 93.789062 120.984375 93.414062 121.417969 93.054688 C 121.851562 92.699219 122.300781 92.367188 122.769531 92.054688 C 123.234375 91.742188 123.714844 91.453125 124.210938 91.191406 C 124.703125 90.925781 125.210938 90.6875 125.726562 90.472656 C 126.246094 90.257812 126.773438 90.066406 127.3125 89.90625 C 127.847656 89.742188 128.390625 89.605469 128.941406 89.496094 C 129.492188 89.386719 130.042969 89.304688 130.601562 89.25 C 131.160156 89.195312 131.71875 89.167969 132.28125 89.167969 C 132.84375 89.167969 133.402344 89.195312 133.960938 89.25 C 134.515625 89.304688 135.070312 89.386719 135.621094 89.496094 C 136.171875 89.605469 136.714844 89.742188 137.25 89.90625 C 137.789062 90.066406 138.316406 90.257812 138.832031 90.472656 C 139.351562 90.6875 139.859375 90.925781 140.351562 91.191406 C 140.847656 91.453125 141.328125 91.742188 141.792969 92.054688 C 142.261719 92.367188 142.710938 92.699219 143.144531 93.054688 C 143.578125 93.414062 143.992188 93.789062 144.386719 94.183594 C 144.785156 94.582031 145.160156 94.996094 145.515625 95.429688 C 145.871094 95.863281 146.207031 96.316406 146.519531 96.78125 C 146.828125 97.246094 147.117188 97.726562 147.382812 98.222656 C 147.644531 98.71875 147.886719 99.222656 148.101562 99.742188 C 148.316406 100.261719 148.503906 100.789062 148.667969 101.324219 C 148.828125 101.863281 148.964844 102.40625 149.074219 102.957031 C 149.183594 103.507812 149.265625 104.0625 149.320312 104.621094 C 149.375 105.179688 149.402344 105.738281 149.402344 106.296875 Z M 149.402344 106.296875 " fill-opacity="1" fill-rule="nonzero"/><path fill="#fff200" d="M 196.359375 106.296875 C 196.359375 106.859375 196.332031 107.417969 196.277344 107.976562 C 196.222656 108.535156 196.140625 109.089844 196.03125 109.640625 C 195.921875 110.191406 195.785156 110.734375 195.625 111.269531 C 195.460938 111.808594 195.273438 112.335938 195.058594 112.855469 C 194.84375 113.371094 194.605469 113.878906 194.339844 114.375 C 194.074219 114.867188 193.785156 115.347656 193.476562 115.816406 C 193.164062 116.28125 192.832031 116.734375 192.472656 117.167969 C 192.117188 117.601562 191.742188 118.015625 191.347656 118.410156 C 190.949219 118.808594 190.535156 119.183594 190.101562 119.539062 C 189.667969 119.898438 189.21875 120.230469 188.75 120.542969 C 188.285156 120.855469 187.804688 121.140625 187.308594 121.40625 C 186.816406 121.671875 186.308594 121.910156 185.789062 122.125 C 185.273438 122.339844 184.746094 122.527344 184.207031 122.691406 C 183.671875 122.855469 183.128906 122.992188 182.578125 123.101562 C 182.027344 123.210938 181.476562 123.292969 180.917969 123.347656 C 180.359375 123.402344 179.800781 123.429688 179.238281 123.429688 C 178.675781 123.429688 178.117188 123.402344 177.558594 123.347656 C 177.003906 123.292969 176.449219 123.210938 175.898438 123.101562 C 175.347656 122.992188 174.804688 122.855469 174.269531 122.691406 C 173.730469 122.527344 173.203125 122.339844 172.6875 122.125 C 172.167969 121.910156 171.660156 121.671875 171.167969 121.40625 C 170.671875 121.140625 170.191406 120.855469 169.726562 120.542969 C 169.257812 120.230469 168.808594 119.898438 168.375 119.539062 C 167.941406 119.183594 167.527344 118.808594 167.132812 118.410156 C 166.734375 118.015625 166.359375 117.601562 166.003906 117.167969 C 165.648438 116.734375 165.3125 116.28125 165 115.816406 C 164.691406 115.347656 164.402344 114.867188 164.136719 114.375 C 163.875 113.878906 163.632812 113.371094 163.417969 112.855469 C 163.203125 112.335938 163.015625 111.808594 162.851562 111.269531 C 162.691406 110.734375 162.554688 110.191406 162.445312 109.640625 C 162.335938 109.089844 162.253906 108.535156 162.199219 107.976562 C 162.144531 107.417969 162.117188 106.859375 162.117188 106.296875 C 162.117188 105.738281 162.144531 105.179688 162.199219 104.621094 C 162.253906 104.0625 162.335938 103.507812 162.445312 102.957031 C 162.554688 102.40625 162.691406 101.863281 162.851562 101.324219 C 163.015625 100.789062 163.203125 100.261719 163.417969 99.742188 C 163.632812 99.222656 163.875 98.71875 164.136719 98.222656 C 164.402344 97.726562 164.691406 97.246094 165 96.78125 C 165.3125 96.316406 165.648438 95.863281 166.003906 95.429688 C 166.359375 94.996094 166.734375 94.582031 167.132812 94.183594 C 167.527344 93.789062 167.941406 93.414062 168.375 93.054688 C 168.808594 92.699219 169.257812 92.367188 169.726562 92.054688 C 170.191406 91.742188 170.671875 91.453125 171.167969 91.191406 C 171.660156 90.925781 172.167969 90.6875 172.6875 90.472656 C 173.203125 90.257812 173.730469 90.066406 174.269531 89.90625 C 174.804688 89.742188 175.347656 89.605469 175.898438 89.496094 C 176.449219 89.386719 177.003906 89.304688 177.558594 89.25 C 178.117188 89.195312 178.675781 89.167969 179.238281 89.167969 C 179.800781 89.167969 180.359375 89.195312 180.917969 89.25 C 181.476562 89.304688 182.027344 89.386719 182.578125 89.496094 C 183.128906 89.605469 183.671875 89.742188 184.207031 89.90625 C 184.746094 90.066406 185.273438 90.257812 185.789062 90.472656 C 186.308594 90.6875 186.816406 90.925781 187.308594 91.191406 C 187.804688 91.453125 188.285156 91.742188 188.75 92.054688 C 189.21875 92.367188 189.667969 92.699219 190.101562 93.054688 C 190.535156 93.414062 190.949219 93.789062 191.347656 94.183594 C 191.742188 94.582031 192.117188 94.996094 192.472656 95.429688 C 192.832031 95.863281 193.164062 96.316406 193.476562 96.78125 C 193.785156 97.246094 194.074219 97.726562 194.339844 98.222656 C 194.605469 98.71875 194.84375 99.222656 195.058594 99.742188 C 195.273438 100.261719 195.460938 100.789062 195.625 101.324219 C 195.785156 101.863281 195.921875 102.40625 196.03125 102.957031 C 196.140625 103.507812 196.222656 104.0625 196.277344 104.621094 C 196.332031 105.179688 196.359375 105.738281 196.359375 106.296875 Z M 196.359375 106.296875 " fill-opacity="1" fill-rule="nonzero"/><path fill="#009444" d="M 243.320312 106.296875 C 243.320312 106.859375 243.289062 107.417969 243.234375 107.976562 C 243.179688 108.535156 243.097656 109.089844 242.988281 109.640625 C 242.878906 110.191406 242.742188 110.734375 242.582031 111.269531 C 242.417969 111.808594 242.230469 112.335938 242.015625 112.855469 C 241.800781 113.371094 241.5625 113.878906 241.296875 114.375 C 241.03125 114.867188 240.746094 115.347656 240.433594 115.816406 C 240.121094 116.28125 239.789062 116.734375 239.433594 117.167969 C 239.074219 117.601562 238.699219 118.015625 238.304688 118.410156 C 237.90625 118.808594 237.492188 119.183594 237.058594 119.539062 C 236.625 119.898438 236.175781 120.230469 235.707031 120.542969 C 235.242188 120.855469 234.761719 121.140625 234.265625 121.40625 C 233.773438 121.671875 233.265625 121.910156 232.75 122.125 C 232.230469 122.339844 231.703125 122.527344 231.167969 122.691406 C 230.628906 122.855469 230.085938 122.992188 229.535156 123.101562 C 228.984375 123.210938 228.433594 123.292969 227.875 123.347656 C 227.316406 123.402344 226.757812 123.429688 226.195312 123.429688 C 225.636719 123.429688 225.074219 123.402344 224.515625 123.347656 C 223.960938 123.292969 223.40625 123.210938 222.855469 123.101562 C 222.304688 122.992188 221.761719 122.855469 221.226562 122.691406 C 220.6875 122.527344 220.160156 122.339844 219.644531 122.125 C 219.125 121.910156 218.617188 121.671875 218.125 121.40625 C 217.628906 121.140625 217.148438 120.855469 216.683594 120.542969 C 216.214844 120.230469 215.765625 119.898438 215.332031 119.539062 C 214.898438 119.183594 214.484375 118.808594 214.089844 118.410156 C 213.691406 118.015625 213.316406 117.601562 212.960938 117.167969 C 212.605469 116.734375 212.269531 116.28125 211.957031 115.816406 C 211.648438 115.347656 211.359375 114.867188 211.09375 114.375 C 210.832031 113.878906 210.589844 113.371094 210.375 112.855469 C 210.160156 112.335938 209.972656 111.808594 209.808594 111.269531 C 209.648438 110.734375 209.511719 110.191406 209.402344 109.640625 C 209.292969 109.089844 209.210938 108.535156 209.15625 107.976562 C 209.101562 107.417969 209.074219 106.859375 209.074219 106.296875 C 209.074219 105.738281 209.101562 105.179688 209.15625 104.621094 C 209.210938 104.0625 209.292969 103.507812 209.402344 102.957031 C 209.511719 102.40625 209.648438 101.863281 209.8125 101.324219 C 209.972656 100.789062 210.160156 100.261719 210.375 99.742188 C 210.589844 99.222656 210.832031 98.71875 211.09375 98.222656 C 211.359375 97.726562 211.648438 97.246094 211.957031 96.78125 C 212.269531 96.316406 212.605469 95.863281 212.960938 95.429688 C 213.316406 94.996094 213.691406 94.582031 214.089844 94.183594 C 214.484375 93.789062 214.898438 93.414062 215.332031 93.054688 C 215.765625 92.699219 216.214844 92.367188 216.683594 92.054688 C 217.148438 91.742188 217.628906 91.453125 218.125 91.191406 C 218.617188 90.925781 219.125 90.6875 219.644531 90.472656 C 220.160156 90.257812 220.6875 90.066406 221.226562 89.90625 C 221.761719 89.742188 222.304688 89.605469 222.855469 89.496094 C 223.40625 89.386719 223.960938 89.304688 224.515625 89.25 C 225.074219 89.195312 225.636719 89.167969 226.195312 89.167969 C 226.757812 89.167969 227.316406 89.195312 227.875 89.25 C 228.433594 89.304688 228.984375 89.386719 229.535156 89.496094 C 230.085938 89.605469 230.628906 89.742188 231.167969 89.90625 C 231.703125 90.066406 232.230469 90.257812 232.75 90.472656 C 233.265625 90.6875 233.773438 90.925781 234.265625 91.191406 C 234.761719 91.453125 235.242188 91.742188 235.707031 92.054688 C 236.175781 92.367188 236.625 92.699219 237.058594 93.054688 C 237.492188 93.414062 237.90625 93.789062 238.304688 94.183594 C 238.699219 94.582031 239.074219 94.996094 239.433594 95.429688 C 239.789062 95.863281 240.121094 96.316406 240.433594 96.78125 C 240.746094 97.246094 241.03125 97.726562 241.296875 98.222656 C 241.5625 98.71875 241.800781 99.222656 242.015625 99.742188 C 242.230469 100.261719 242.417969 100.789062 242.582031 101.324219 C 242.742188 101.863281 242.878906 102.40625 242.988281 102.957031 C 243.097656 103.507812 243.179688 104.0625 243.234375 104.621094 C 243.289062 105.179688 243.320312 105.738281 243.320312 106.296875 Z M 243.320312 106.296875 " fill-opacity="1" fill-rule="nonzero"/><path stroke-linecap="butt" id="g1" transform="matrix(0.673273, 0, 0, 0.673273, 75.656445, 365.858827)" fill="none" stroke-linejoin="miter" d="M 265.784045 112.998319 L 212.969489 112.998319 C 211.223122 112.998319 209.958311 112.609593 209.175057 111.826338 C 208.41501 111.043084 208.032085 109.789877 208.032085 108.066717 L 208.032085 18.92076 C 208.032085 17.191799 208.41501 15.938592 209.175057 15.155337 C 209.958311 14.372083 211.223122 13.983357 212.969489 13.983357 L 256.854944 13.983357 C 265.83046 13.983357 272.467816 15.706516 276.767012 19.152836 C 281.083614 22.575948 283.247717 27.873068 283.247717 35.032594 L 283.247717 41.617733 C 283.247717 45.464382 282.574699 48.609004 281.228661 51.051597 C 279.911634 53.470983 277.875172 55.281171 275.119277 56.487963 C 281.00819 57.027538 285.371207 59.040792 288.214131 62.533527 C 291.057054 66.003054 292.478516 71.085505 292.478516 77.78088 L 292.478516 90.43479 C 292.478516 98.133891 290.297007 103.819738 285.93399 107.492331 C 281.565171 111.164924 274.85239 112.998319 265.784045 112.998319 Z M 238.95613 37.353348 L 238.95613 52.223578 L 250.641126 52.223578 C 252.387493 52.223578 253.698719 51.765229 254.569002 50.848531 C 255.445086 49.931834 255.880228 48.556787 255.880228 46.717589 L 255.880228 42.859336 C 255.880228 41.020139 255.445086 39.645092 254.569002 38.728394 C 253.698719 37.811697 252.387493 37.353348 250.641126 37.353348 Z M 238.95613 73.377249 L 238.95613 89.628328 L 256.854944 89.628328 C 258.601312 89.628328 259.900934 89.169979 260.748009 88.253281 C 261.624093 87.336584 262.059235 85.961537 262.059235 84.12234 L 262.059235 78.749794 C 262.059235 76.916399 261.624093 75.56456 260.748009 74.688475 C 259.900934 73.818192 258.601312 73.377249 256.854944 73.377249 Z M 339.613026 38.728394 L 339.613026 56.319708 L 349.957786 56.319708 C 352.330757 56.319708 353.932077 55.704709 354.761747 54.474709 C 355.585615 53.24471 356.00335 51.713012 356.00335 49.873815 L 356.00335 45.209099 C 356.00335 43.375704 355.585615 41.838205 354.761747 40.608205 C 353.932077 39.354998 352.330757 38.728394 349.957786 38.728394 Z M 334.681424 112.998319 L 313.492942 112.998319 C 311.746574 112.998319 310.481764 112.609593 309.698509 111.826338 C 308.938462 111.043084 308.555538 109.789877 308.555538 108.066717 L 308.555538 18.92076 C 308.555538 17.191799 308.938462 15.938592 309.698509 15.155337 C 310.481764 14.372083 311.746574 13.983357 313.492942 13.983357 L 359.293019 13.983357 C 369.568156 13.983357 376.652258 16.11845 380.545322 20.394439 C 384.438387 24.64722 386.38782 30.164813 386.38782 36.947216 L 386.38782 43.259666 C 386.38782 47.112118 385.819235 50.390182 384.676264 53.099663 C 383.533293 55.809143 381.543246 57.752774 378.700323 58.94216 C 383.643528 59.499141 387.652631 61.529801 390.721828 65.016734 C 393.785223 68.486261 395.31692 73.110363 395.31692 78.883238 L 395.31692 108.066717 C 395.31692 109.789877 394.928194 111.043084 394.14494 111.826338 C 393.384893 112.609593 392.131686 112.998319 390.385318 112.998319 L 369.063392 112.998319 C 367.317025 112.998319 366.052214 112.609593 365.26896 111.826338 C 364.485706 111.043084 364.091177 109.789877 364.091177 108.066717 L 364.091177 87.011678 C 364.091177 84.998424 363.702451 83.50734 362.919197 82.544227 C 362.15915 81.581114 360.813113 81.099558 358.886887 81.099558 L 339.613026 81.099558 L 339.613026 108.066717 C 339.613026 109.789877 339.2243 111.043084 338.441046 111.826338 C 337.680999 112.609593 336.427792 112.998319 334.681424 112.998319 Z M 414.31229 112.998319 C 412.565923 112.998319 411.301112 112.609593 410.517858 111.826338 C 409.734604 111.043084 409.340075 109.789877 409.340075 108.066717 L 409.340075 91.676393 C 409.340075 89.930026 409.734604 88.676819 410.517858 87.916772 C 411.301112 87.133518 412.565923 86.744791 414.31229 86.744791 L 427.906106 86.744791 L 427.906106 40.509573 L 414.31229 40.509573 C 412.565923 40.509573 411.301112 40.126649 410.517858 39.366602 C 409.734604 38.583347 409.340075 37.318536 409.340075 35.572169 L 409.340075 18.92076 C 409.340075 17.191799 409.734604 15.938592 410.517858 15.155337 C 411.301112 14.372083 412.565923 13.983357 414.31229 13.983357 L 472.86491 13.983357 C 474.611277 13.983357 475.876088 14.372083 476.659342 15.155337 C 477.442597 15.938592 477.837125 17.191799 477.837125 18.92076 L 477.837125 35.572169 C 477.837125 37.318536 477.442597 38.583347 476.659342 39.366602 C 475.876088 40.126649 474.611277 40.509573 472.86491 40.509573 L 459.537981 40.509573 L 459.537981 86.744791 L 472.86491 86.744791 C 474.611277 86.744791 475.876088 87.133518 476.659342 87.916772 C 477.442597 88.676819 477.837125 89.930026 477.837125 91.676393 L 477.837125 108.066717 C 477.837125 109.789877 477.442597 111.043084 476.659342 111.826338 C 475.876088 112.609593 474.611277 112.998319 472.86491 112.998319 Z M 571.19525 112.998319 L 527.87838 112.998319 C 516.419658 112.998319 507.914095 110.706575 502.361691 106.117284 C 496.832495 101.527993 494.064996 94.4671 494.064996 84.928801 L 494.064996 42.018063 C 494.064996 32.485567 496.832495 25.430475 502.361691 20.864392 C 507.914095 16.275101 516.419658 13.983357 527.87838 13.983357 L 562.260348 13.983357 C 564.006715 13.983357 565.271526 14.372083 566.05478 15.155337 C 566.838035 15.938592 567.232563 17.191799 567.232563 18.92076 L 567.232563 35.572169 C 567.232563 37.318536 566.838035 38.583347 566.05478 39.366602 C 565.271526 40.126649 564.006715 40.509573 562.260348 40.509573 L 533.657057 40.509573 C 530.814133 40.509573 528.696445 41.089761 527.309795 42.25594 C 525.94055 43.39311 525.26173 45.110467 525.26173 47.390608 L 525.26173 80.264086 C 525.26173 82.567434 525.783899 84.267387 526.839842 85.363943 C 527.913191 86.460499 529.502907 87.011678 531.608991 87.011678 L 544.93592 87.011678 L 544.93592 65.556309 C 544.93592 63.809942 545.330449 62.545131 546.113703 61.761876 C 546.896957 60.978622 548.161768 60.584094 549.908136 60.584094 L 571.19525 60.584094 C 572.941617 60.584094 574.206428 60.978622 574.989683 61.761876 C 575.772937 62.545131 576.161663 63.809942 576.161663 65.556309 L 576.161663 108.066717 C 576.161663 109.789877 575.772937 111.043084 574.989683 111.826338 C 574.206428 112.609593 572.941617 112.998319 571.19525 112.998319 Z M 620.023911 112.998319 L 598.701985 112.998319 C 596.955618 112.998319 595.690807 112.609593 594.907552 111.826338 C 594.147506 111.043084 593.764581 109.789877 593.764581 108.066717 L 593.764581 18.92076 C 593.764581 17.191799 594.147506 15.938592 594.907552 15.155337 C 595.690807 14.372083 596.955618 13.983357 598.701985 13.983357 L 620.023911 13.983357 C 621.770278 13.983357 623.023485 14.372083 623.783532 15.155337 C 624.566787 15.938592 624.955513 17.191799 624.955513 18.92076 L 624.955513 48.765655 L 647.925174 48.765655 L 647.925174 18.92076 C 647.925174 17.191799 648.3139 15.938592 649.097155 15.155337 C 649.880409 14.372083 651.14522 13.983357 652.891587 13.983357 L 674.213513 13.983357 C 675.95988 13.983357 677.213087 14.372083 677.973134 15.155337 C 678.756389 15.938592 679.150917 17.191799 679.150917 18.92076 L 679.150917 108.066717 C 679.150917 109.789877 678.756389 111.043084 677.973134 111.826338 C 677.213087 112.609593 675.95988 112.998319 674.213513 112.998319 L 652.891587 112.998319 C 651.14522 112.998319 649.880409 112.609593 649.097155 111.826338 C 648.3139 111.043084 647.925174 109.789877 647.925174 108.066717 L 647.925174 77.508191 L 624.955513 77.508191 L 624.955513 108.066717 C 624.955513 109.789877 624.566787 111.043084 623.783532 111.826338 C 623.023485 112.609593 621.770278 112.998319 620.023911 112.998319 Z M 745.704335 112.998319 L 723.442504 112.998319 C 721.696137 112.998319 720.431326 112.609593 719.648071 111.826338 C 718.864817 111.043084 718.470289 109.789877 718.470289 108.066717 L 718.470289 40.509573 L 698.256523 40.509573 C 696.515958 40.509573 695.251147 40.126649 694.467892 39.366602 C 693.702043 38.583347 693.324921 37.318536 693.324921 35.572169 L 693.324921 18.92076 C 693.324921 17.191799 693.702043 15.938592 694.467892 15.155337 C 695.251147 14.372083 696.515958 13.983357 698.256523 13.983357 L 770.884514 13.983357 C 772.630882 13.983357 773.884089 14.372083 774.644136 15.155337 C 775.42739 15.938592 775.821918 17.191799 775.821918 18.92076 L 775.821918 35.572169 C 775.821918 37.318536 775.42739 38.583347 774.644136 39.366602 C 773.884089 40.126649 772.630882 40.509573 770.884514 40.509573 L 750.670748 40.509573 L 750.670748 108.066717 C 750.670748 109.789877 750.282022 111.043084 749.498768 111.826338 C 748.715513 112.609593 747.450702 112.998319 745.704335 112.998319 Z M 858.76566 112.998319 L 794.933326 112.998319 C 793.186959 112.998319 791.922148 112.609593 791.138893 111.826338 C 790.378847 111.043084 790.001724 109.789877 790.001724 108.066717 L 790.001724 18.92076 C 790.001724 17.191799 790.378847 15.938592 791.138893 15.155337 C 791.922148 14.372083 793.186959 13.983357 794.933326 13.983357 L 858.76566 13.983357 C 860.48882 13.983357 861.742027 14.372083 862.525282 15.155337 C 863.308536 15.938592 863.703064 17.191799 863.703064 18.92076 L 863.703064 35.032594 C 863.703064 36.755754 863.308536 38.014763 862.525282 38.798017 C 861.742027 39.581271 860.48882 39.969998 858.76566 39.969998 L 820.792326 39.969998 L 820.792326 50.546833 L 847.62024 50.546833 C 849.360805 50.546833 850.619814 50.941361 851.379861 51.724616 C 852.163116 52.50787 852.551842 53.772681 852.551842 55.519048 L 852.551842 70.221024 C 852.551842 71.967391 852.163116 73.232202 851.379861 74.015457 C 850.619814 74.798711 849.360805 75.193239 847.62024 75.193239 L 820.792326 75.193239 L 820.792326 87.011678 L 858.76566 87.011678 C 860.48882 87.011678 861.742027 87.406206 862.525282 88.189461 C 863.308536 88.949507 863.703064 90.202715 863.703064 91.949082 L 863.703064 108.066717 C 863.703064 109.789877 863.308536 111.043084 862.525282 111.826338 C 861.742027 112.609593 860.48882 112.998319 858.76566 112.998319 Z M 911.818093 38.728394 L 911.818093 56.319708 L 922.162853 56.319708 C 924.535824 56.319708 926.131343 55.704709 926.961012 54.474709 C 927.790682 53.24471 928.202615 51.713012 928.202615 49.873815 L 928.202615 45.209099 C 928.202615 43.375704 927.790682 41.838205 926.961012 40.608205 C 926.131343 39.354998 924.535824 38.728394 922.162853 38.728394 Z M 906.880689 112.998319 L 885.698009 112.998319 C 883.951641 112.998319 882.686831 112.609593 881.903576 111.826338 C 881.143529 111.043084 880.760605 109.789877 880.760605 108.066717 L 880.760605 18.92076 C 880.760605 17.191799 881.143529 15.938592 881.903576 15.155337 C 882.686831 14.372083 883.951641 13.983357 885.698009 13.983357 L 931.492284 13.983357 C 941.767422 13.983357 948.851523 16.11845 952.750389 20.394439 C 956.643454 24.64722 958.592887 30.164813 958.592887 36.947216 L 958.592887 43.259666 C 958.592887 47.112118 958.0185 50.390182 956.881331 53.099663 C 955.73836 55.809143 953.742511 57.752774 950.899588 58.94216 C 955.848595 59.499141 959.857698 61.529801 962.921093 65.016734 C 965.99029 68.486261 967.521987 73.110363 967.521987 78.883238 L 967.521987 108.066717 C 967.521987 109.789877 967.133261 111.043084 966.350007 111.826338 C 965.584158 112.609593 964.330951 112.998319 962.584583 112.998319 L 941.262658 112.998319 C 939.522092 112.998319 938.257281 112.609593 937.474027 111.826338 C 936.684971 111.043084 936.296244 109.789877 936.296244 108.066717 L 936.296244 87.011678 C 936.296244 84.998424 935.901716 83.50734 935.118462 82.544227 C 934.358415 81.581114 933.01818 81.099558 931.091954 81.099558 L 911.818093 81.099558 L 911.818093 108.066717 C 911.818093 109.789877 911.429367 111.043084 910.646113 111.826338 C 909.880264 112.609593 908.627057 112.998319 906.880689 112.998319 Z M 906.880689 112.998319 " stroke="#40e137" stroke-width="5.15745" stroke-opacity="1" stroke-miterlimit="4"/><path id="g2" stroke-linecap="butt" transform="matrix(0.673273, 0, 0, 0.673273, 75.656445, 365.858827)" fill="none" stroke-linejoin="miter" d="M 168.207949 240.001573 L 145.946118 240.001573 C 144.199751 240.001573 142.93494 239.607045 142.151686 238.823791 C 141.368431 238.040536 140.979705 236.787329 140.979705 235.064169 L 140.979705 167.507025 L 120.765939 167.507025 C 119.019572 167.507025 117.754761 167.129903 116.971507 166.364054 C 116.21146 165.580799 115.828535 164.315988 115.828535 162.569621 L 115.828535 145.918212 C 115.828535 144.195053 116.21146 142.941846 116.971507 142.158591 C 117.754761 141.375337 119.019572 140.980809 120.765939 140.980809 L 193.393931 140.980809 C 195.140298 140.980809 196.393505 141.375337 197.153552 142.158591 C 197.936806 142.941846 198.325532 144.195053 198.325532 145.918212 L 198.325532 162.569621 C 198.325532 164.315988 197.936806 165.580799 197.153552 166.364054 C 196.393505 167.129903 195.140298 167.507025 193.393931 167.507025 L 173.180165 167.507025 L 173.180165 235.064169 C 173.180165 236.787329 172.785636 238.040536 172.002382 238.823791 C 171.219128 239.607045 169.954317 240.001573 168.207949 240.001573 Z M 238.764668 240.001573 L 217.442742 240.001573 C 215.696375 240.001573 214.431564 239.607045 213.64831 238.823791 C 212.888263 238.040536 212.505338 236.787329 212.505338 235.064169 L 212.505338 145.918212 C 212.505338 144.195053 212.888263 142.941846 213.64831 142.158591 C 214.431564 141.375337 215.696375 140.980809 217.442742 140.980809 L 238.764668 140.980809 C 240.511035 140.980809 241.764242 141.375337 242.524289 142.158591 C 243.307544 142.941846 243.69627 144.195053 243.69627 145.918212 L 243.69627 175.768909 L 266.665931 175.768909 L 266.665931 145.918212 C 266.665931 144.195053 267.054657 142.941846 267.837912 142.158591 C 268.626968 141.375337 269.885977 140.980809 271.632344 140.980809 L 292.95427 140.980809 C 294.700638 140.980809 295.953845 141.375337 296.713891 142.158591 C 297.502948 142.941846 297.891674 144.195053 297.891674 145.918212 L 297.891674 235.064169 C 297.891674 236.787329 297.502948 238.040536 296.713891 238.823791 C 295.953845 239.607045 294.700638 240.001573 292.95427 240.001573 L 271.632344 240.001573 C 269.885977 240.001573 268.626968 239.607045 267.837912 238.823791 C 267.054657 238.040536 266.665931 236.787329 266.665931 235.064169 L 266.665931 204.511445 L 243.69627 204.511445 L 243.69627 235.064169 C 243.69627 236.787329 243.307544 238.040536 242.524289 238.823791 C 241.764242 239.607045 240.511035 240.001573 238.764668 240.001573 Z M 386.469046 240.001573 L 322.642514 240.001573 C 320.896147 240.001573 319.631336 239.607045 318.848081 238.823791 C 318.088034 238.040536 317.70511 236.787329 317.70511 235.064169 L 317.70511 145.918212 C 317.70511 144.195053 318.088034 142.941846 318.848081 142.158591 C 319.631336 141.375337 320.896147 140.980809 322.642514 140.980809 L 386.469046 140.980809 C 388.192206 140.980809 389.445413 141.375337 390.228668 142.158591 C 391.017724 142.941846 391.40645 144.195053 391.40645 145.918212 L 391.40645 162.035848 C 391.40645 163.759008 391.017724 165.012215 390.228668 165.795469 C 389.445413 166.578723 388.192206 166.973252 386.469046 166.973252 L 348.495712 166.973252 L 348.495712 177.550087 L 375.323626 177.550087 C 377.069993 177.550087 378.3232 177.938814 379.083247 178.722068 C 379.866502 179.505322 380.26103 180.770133 380.26103 182.5165 L 380.26103 197.224278 C 380.26103 198.970645 379.866502 200.235456 379.083247 201.01871 C 378.3232 201.801965 377.069993 202.190691 375.323626 202.190691 L 348.495712 202.190691 L 348.495712 214.00913 L 386.469046 214.00913 C 388.192206 214.00913 389.445413 214.403658 390.228668 215.186913 C 391.017724 215.94696 391.40645 217.200167 391.40645 218.946534 L 391.40645 235.064169 C 391.40645 236.787329 391.017724 238.040536 390.228668 238.823791 C 389.445413 239.607045 388.192206 240.001573 386.469046 240.001573 Z M 511.580886 231.873133 L 459.201472 216.898469 C 453.515625 215.244932 449.187419 212.970593 446.211052 210.081254 C 443.234685 207.197718 441.743601 202.358946 441.743601 195.576543 L 441.743601 185.672726 C 441.743601 178.890323 443.234685 174.057353 446.211052 171.168014 C 449.187419 168.278676 453.515625 166.010139 459.201472 164.3508 L 511.580886 149.376136 C 513.327253 148.993211 514.592064 149.17307 515.375318 149.915711 C 516.158573 150.65255 516.553101 151.894154 516.553101 153.640521 L 516.553101 171.77141 C 516.553101 173.517777 516.158573 174.829003 515.375318 175.699286 C 514.592064 176.575371 513.327253 177.143955 511.580886 177.410842 L 472.128071 188.022489 C 471.211373 188.202347 470.584769 188.480838 470.24826 188.863762 C 469.934958 189.223479 469.778307 189.815271 469.778307 190.644941 C 469.778307 191.445601 469.934958 192.043195 470.24826 192.420317 C 470.584769 192.780034 471.211373 193.046921 472.128071 193.226779 L 511.580886 203.838426 C 513.327253 204.105313 514.592064 204.6797 515.375318 205.549982 C 516.158573 206.426067 516.553101 207.731491 516.553101 209.477858 L 516.553101 227.608748 C 516.553101 229.355115 516.158573 230.596718 515.375318 231.339359 C 514.592064 232.076199 513.327253 232.256057 511.580886 231.873133 Z M 605.118869 240.001573 L 571.543363 240.001573 C 560.084641 240.001573 551.579078 237.704027 546.026675 233.114736 C 540.497479 228.525445 537.72998 221.464552 537.72998 211.932055 L 537.72998 169.189572 C 537.72998 159.651273 540.497479 152.567172 546.026675 147.931466 C 551.579078 143.301562 560.084641 140.980809 571.543363 140.980809 L 605.118869 140.980809 C 606.842029 140.980809 608.101038 141.375337 608.884292 142.158591 C 609.667547 142.941846 610.056273 144.195053 610.056273 145.918212 L 610.056273 162.569621 C 610.056273 164.315988 609.667547 165.580799 608.884292 166.364054 C 608.101038 167.129903 606.842029 167.507025 605.118869 167.507025 L 577.455484 167.507025 C 574.61256 167.507025 572.494872 168.087213 571.108222 169.253392 C 569.744779 170.396364 569.060157 172.107919 569.060157 174.393862 L 569.060157 207.128095 C 569.060157 209.414037 569.744779 211.090782 571.108222 212.164131 C 572.494872 213.214272 574.61256 213.742243 577.455484 213.742243 L 605.118869 213.742243 C 606.842029 213.742243 608.101038 214.136772 608.884292 214.920026 C 609.667547 215.680073 610.056273 216.93328 610.056273 218.679647 L 610.056273 235.064169 C 610.056273 236.787329 609.667547 238.040536 608.884292 238.823791 C 608.101038 239.607045 606.842029 240.001573 605.118869 240.001573 Z M 710.301235 214.00913 C 710.301235 218.221298 709.686236 222.050542 708.456236 225.496862 C 707.226236 228.919974 705.02152 231.849925 701.842088 234.292519 C 698.685862 236.72931 694.334449 238.632328 688.782045 240.001573 C 683.229642 241.365016 676.191956 242.049638 667.663185 242.049638 C 659.134415 242.049638 652.06772 241.365016 646.474703 240.001573 C 640.899092 238.632328 636.524471 236.72931 633.345038 234.292519 C 630.188813 231.849925 627.9957 228.919974 626.765701 225.496862 C 625.535701 222.050542 624.9149 218.221298 624.9149 214.00913 L 624.9149 167.106695 C 624.9149 162.894527 625.535701 159.082689 626.765701 155.653775 C 627.9957 152.207455 630.188813 149.242692 633.345038 146.759486 C 636.524471 144.270477 640.899092 142.350053 646.474703 140.980809 C 652.06772 139.594158 659.134415 138.897932 667.663185 138.897932 C 676.191956 138.897932 683.229642 139.594158 688.782045 140.980809 C 694.334449 142.350053 698.685862 144.270477 701.842088 146.759486 C 705.02152 149.242692 707.226236 152.207455 708.456236 155.653775 C 709.686236 159.082689 710.301235 162.894527 710.301235 167.106695 Z M 656.111633 209.042717 C 656.111633 210.876112 656.790454 212.425216 658.159698 213.678423 C 659.546349 214.908422 662.714178 215.523422 667.663185 215.523422 C 672.629599 215.523422 675.797428 214.908422 677.16087 213.678423 C 678.530115 212.425216 679.208936 210.876112 679.208936 209.042717 L 679.208936 172.073108 C 679.208936 170.326741 678.530115 168.841458 677.16087 167.611459 C 675.797428 166.35245 672.629599 165.725846 667.663185 165.725846 C 662.714178 165.725846 659.546349 166.35245 658.159698 167.611459 C 656.790454 168.841458 656.111633 170.326741 656.111633 172.073108 Z M 779.871634 240.001573 L 733.537783 240.001573 C 731.791416 240.001573 730.526605 239.607045 729.743351 238.823791 C 728.983304 238.040536 728.600379 236.787329 728.600379 235.064169 L 728.600379 145.918212 C 728.600379 144.195053 728.983304 142.941846 729.743351 142.158591 C 730.526605 141.375337 731.791416 140.980809 733.537783 140.980809 L 779.871634 140.980809 C 791.336158 140.980809 799.84172 143.278355 805.394124 147.867646 C 810.946528 152.433729 813.719828 159.483019 813.719828 169.021317 L 813.719828 211.932055 C 813.719828 221.464552 810.946528 228.525445 805.394124 233.114736 C 799.84172 237.704027 791.336158 240.001573 779.871634 240.001573 Z M 759.797113 167.240138 L 759.797113 214.00913 L 776.181635 214.00913 C 778.374747 214.00913 779.999275 213.463753 781.049416 212.367197 C 782.099557 211.270641 782.627529 209.570688 782.627529 207.261538 L 782.627529 173.854287 C 782.627529 171.550939 782.099557 169.868392 781.049416 168.818251 C 779.999275 167.76811 778.374747 167.240138 776.181635 167.240138 Z M 900.777107 240.001573 L 836.950574 240.001573 C 835.204207 240.001573 833.939396 239.607045 833.156142 238.823791 C 832.396095 238.040536 832.013171 236.787329 832.013171 235.064169 L 832.013171 145.918212 C 832.013171 144.195053 832.396095 142.941846 833.156142 142.158591 C 833.939396 141.375337 835.204207 140.980809 836.950574 140.980809 L 900.777107 140.980809 C 902.500267 140.980809 903.759275 141.375337 904.54253 142.158591 C 905.325784 142.941846 905.714511 144.195053 905.714511 145.918212 L 905.714511 162.035848 C 905.714511 163.759008 905.325784 165.012215 904.54253 165.795469 C 903.759275 166.578723 902.500267 166.973252 900.777107 166.973252 L 862.803772 166.973252 L 862.803772 177.550087 L 889.631686 177.550087 C 891.378054 177.550087 892.631261 177.938814 893.391308 178.722068 C 894.174562 179.505322 894.56909 180.770133 894.56909 182.5165 L 894.56909 197.224278 C 894.56909 198.970645 894.174562 200.235456 893.391308 201.01871 C 892.631261 201.801965 891.378054 202.190691 889.631686 202.190691 L 862.803772 202.190691 L 862.803772 214.00913 L 900.777107 214.00913 C 902.500267 214.00913 903.759275 214.403658 904.54253 215.186913 C 905.325784 215.94696 905.714511 217.200167 905.714511 218.946534 L 905.714511 235.064169 C 905.714511 236.787329 905.325784 238.040536 904.54253 238.823791 C 903.759275 239.607045 902.500267 240.001573 900.777107 240.001573 Z M 914.214272 247.422184 L 930.732237 133.560198 C 930.912095 131.813831 931.347237 130.54902 932.043463 129.765766 C 932.733887 128.982511 933.946481 128.593785 935.669641 128.593785 L 955.610718 128.593785 C 957.357085 128.593785 958.668311 128.982511 959.538594 129.765766 C 960.414679 130.54902 960.762792 131.813831 960.582933 133.560198 L 944.064968 247.422184 C 943.885109 249.168551 943.444166 250.433362 942.753742 251.216616 C 942.080723 251.99987 940.873931 252.388597 939.127564 252.388597 L 919.180685 252.388597 C 917.434318 252.388597 916.128893 251.99987 915.252809 251.216616 C 914.382526 250.433362 914.034413 249.168551 914.214272 247.422184 Z M 1031.557388 216.898469 L 979.143162 231.873133 C 977.396795 232.256057 976.131984 232.076199 975.34873 231.339359 C 974.588683 230.596718 974.205758 229.355115 974.205758 227.608748 L 974.205758 209.477858 C 974.205758 207.731491 974.588683 206.426067 975.34873 205.549982 C 976.131984 204.6797 977.396795 204.105313 979.143162 203.838426 L 1018.624987 193.226779 C 1019.547486 193.046921 1020.162486 192.780034 1020.475788 192.420317 C 1020.78909 192.043195 1020.945741 191.445601 1020.945741 190.644941 C 1020.945741 189.815271 1020.78909 189.223479 1020.475788 188.863762 C 1020.162486 188.480838 1019.547486 188.202347 1018.624987 188.022489 L 979.143162 177.410842 C 977.396795 177.143955 976.131984 176.575371 975.34873 175.699286 C 974.588683 174.829003 974.205758 173.517777 974.205758 171.77141 L 974.205758 153.640521 C 974.205758 151.894154 974.588683 150.65255 975.34873 149.915711 C 976.131984 149.17307 977.396795 148.993211 979.143162 149.376136 L 1031.557388 164.3508 C 1037.237433 166.010139 1041.57144 168.278676 1044.547807 171.168014 C 1047.524174 174.057353 1049.015258 178.890323 1049.015258 185.672726 L 1049.015258 195.576543 C 1049.015258 202.358946 1047.524174 207.197718 1044.547807 210.081254 C 1041.57144 212.970593 1037.237433 215.244932 1031.557388 216.898469 Z M 1031.557388 216.898469 " stroke="#40e137" stroke-width="5.15745" stroke-opacity="1" stroke-miterlimit="4"/><path id="b1" stroke-linecap="butt" transform="matrix(0.673273, 0, 0, 0.673273, 195.532958, 176.749572)" fill="none" stroke-linejoin="miter" d="M 156.816601 109.998566 L 108.887233 109.998566 C 107.082847 109.998566 105.771621 109.592434 104.965159 108.785972 C 104.176102 107.973708 103.781574 106.679888 103.781574 104.892908 L 103.781574 12.683556 C 103.781574 10.902377 104.176102 9.602755 104.965159 8.790491 C 105.771621 7.984029 107.082847 7.577897 108.887233 7.577897 L 156.816601 7.577897 C 168.669852 7.577897 177.471311 9.950868 183.215176 14.69681 C 188.95324 19.419544 191.825173 26.712513 191.825173 36.575717 L 191.825173 80.965936 C 191.825173 90.829139 188.95324 98.133712 183.215176 102.879654 C 177.471311 107.625595 168.669852 109.998566 156.816601 109.998566 Z M 136.045855 34.736519 L 136.045855 83.118435 L 152.998961 83.118435 C 155.267498 83.118435 156.944243 82.54985 158.034997 81.418483 C 159.11995 80.281313 159.665327 78.523342 159.665327 76.138768 L 159.665327 41.576941 C 159.665327 39.192366 159.11995 37.457603 158.034997 36.366849 C 156.944243 35.281896 155.267498 34.736519 152.998961 34.736519 Z M 247.030105 37.445999 L 240.323127 59.081227 L 262.660382 59.081227 L 255.988215 37.445999 C 255.593687 36.58732 255.181753 35.978122 254.74081 35.606802 C 254.323074 35.212274 253.835716 35.01501 253.278735 35.01501 L 249.739585 35.01501 C 249.159397 35.01501 248.648831 35.212274 248.207888 35.606802 C 247.790152 35.978122 247.401426 36.58732 247.030105 37.445999 Z M 238.901665 104.892908 C 238.901665 106.679888 238.495533 107.973708 237.683269 108.785972 C 236.900015 109.592434 235.600392 109.998566 233.796006 109.998566 L 212.886014 109.998566 C 211.081628 109.998566 209.776204 109.592434 208.96394 108.785972 C 208.151676 107.973708 207.745544 106.679888 207.745544 104.892908 L 207.745544 67.314101 C 207.745544 64.465376 208.198091 61.204717 209.103185 57.52052 C 210.002478 53.818918 211.406534 49.496514 213.30375 44.564912 L 225.667566 12.26582 C 226.247754 10.647094 227.129641 9.46351 228.307423 8.720869 C 229.491008 7.960822 231.028507 7.577897 232.925724 7.577897 L 271.200756 7.577897 C 273.005142 7.577897 274.502029 7.960822 275.679811 8.720869 C 276.863396 9.46351 277.745282 10.647094 278.319669 12.26582 L 290.683485 44.564912 C 292.586503 49.496514 293.984757 53.818918 294.889851 57.52052 C 295.789143 61.204717 296.24169 64.465376 296.24169 67.314101 L 296.24169 104.892908 C 296.24169 106.679888 295.835558 107.973708 295.029096 108.785972 C 294.216833 109.592434 292.911409 109.998566 291.101221 109.998566 L 269.640049 109.998566 C 267.742833 109.998566 266.338777 109.592434 265.433683 108.785972 C 264.534391 107.973708 264.081844 106.679888 264.081844 104.892908 L 264.081844 84.957632 L 238.901665 84.957632 Z M 345.871011 33.175812 L 345.871011 51.370522 L 356.569686 51.370522 C 359.023884 51.370522 360.677421 50.738117 361.5361 49.461702 C 362.388977 48.19109 362.818316 46.601373 362.818316 44.704157 L 362.818316 39.876989 C 362.818316 37.979773 362.388977 36.390056 361.5361 35.119443 C 360.677421 33.819821 359.023884 33.175812 356.569686 33.175812 Z M 340.765353 109.998566 L 318.845833 109.998566 C 317.041447 109.998566 315.736023 109.592434 314.923759 108.785972 C 314.134702 107.973708 313.745976 106.679888 313.745976 104.892908 L 313.745976 12.683556 C 313.745976 10.902377 314.134702 9.602755 314.923759 8.790491 C 315.736023 7.984029 317.041447 7.577897 318.845833 7.577897 L 366.224022 7.577897 C 376.853075 7.577897 384.180855 9.788415 388.207363 14.209451 C 392.233871 18.60728 394.252927 24.316334 394.252927 31.330813 L 394.252927 37.863735 C 394.252927 41.843828 393.661135 45.23793 392.47755 48.040241 C 391.299768 50.842551 389.240099 52.855805 386.298543 54.080002 C 391.415805 54.660191 395.558351 56.754671 398.731982 60.369245 C 401.905613 63.95481 403.489527 68.741365 403.489527 74.711504 L 403.489527 104.892908 C 403.489527 106.679888 403.083395 107.973708 402.271131 108.785972 C 401.487877 109.592434 400.188255 109.998566 398.383869 109.998566 L 376.330905 109.998566 C 374.520717 109.998566 373.215293 109.592434 372.403029 108.785972 C 371.596568 107.973708 371.190436 106.679888 371.190436 104.892908 L 371.190436 83.118435 C 371.190436 81.035558 370.784304 79.492257 369.97204 78.500135 C 369.188785 77.502211 367.796333 77.003248 365.806287 77.003248 L 345.871011 77.003248 L 345.871011 104.892908 C 345.871011 106.679888 345.464879 107.973708 344.652615 108.785972 C 343.869361 109.592434 342.569739 109.998566 340.765353 109.998566 Z M 446.59753 109.998566 L 424.538764 109.998566 C 422.734378 109.998566 421.428954 109.592434 420.616691 108.785972 C 419.827634 107.973708 419.433106 106.679888 419.433106 104.892908 L 419.433106 12.683556 C 419.433106 10.902377 419.827634 9.602755 420.616691 8.790491 C 421.428954 7.984029 422.734378 7.577897 424.538764 7.577897 L 446.59753 7.577897 C 448.401916 7.577897 449.695736 7.984029 450.484792 8.790491 C 451.297056 9.602755 451.703188 10.902377 451.703188 12.683556 L 451.703188 45.400383 L 457.394837 45.400383 L 472.050397 12.26582 C 472.723416 10.554264 473.62851 9.347472 474.759878 8.651246 C 475.897047 7.937614 477.364924 7.577897 479.175112 7.577897 L 501.08883 7.577897 C 502.684348 7.577897 503.775103 7.984029 504.355291 8.790491 C 504.929678 9.602755 504.883262 10.763132 504.216046 12.26582 L 489.693929 45.400383 C 494.996851 45.702081 499.238029 47.587694 502.405858 51.063022 C 505.602696 54.509342 507.204016 59.069623 507.204016 64.743866 L 507.204016 104.892908 C 507.204016 106.679888 506.797884 107.973708 505.985621 108.785972 C 505.173357 109.592434 503.867933 109.998566 502.063547 109.998566 L 480.178838 109.998566 C 478.374452 109.998566 477.063226 109.592434 476.256764 108.785972 C 475.4445 107.973708 475.038368 106.679888 475.038368 104.892908 L 475.038368 77.142494 C 475.038368 75.616598 474.655444 74.433014 473.895397 73.603344 C 473.152756 72.744665 472.015586 72.315326 470.489691 72.315326 L 451.703188 72.315326 L 451.703188 104.892908 C 451.703188 106.679888 451.297056 107.973708 450.484792 108.785972 C 449.695736 109.592434 448.401916 109.998566 446.59753 109.998566 Z M 596.680681 109.998566 L 530.661036 109.998566 C 528.850848 109.998566 527.545424 109.592434 526.73316 108.785972 C 525.949905 107.973708 525.555377 106.679888 525.555377 104.892908 L 525.555377 12.683556 C 525.555377 10.902377 525.949905 9.602755 526.73316 8.790491 C 527.545424 7.984029 528.850848 7.577897 530.661036 7.577897 L 596.680681 7.577897 C 598.467661 7.577897 599.761481 7.984029 600.573745 8.790491 C 601.386009 9.602755 601.786339 10.902377 601.786339 12.683556 L 601.786339 29.35237 C 601.786339 31.139351 601.386009 32.433171 600.573745 33.245435 C 599.761481 34.051897 598.467661 34.458029 596.680681 34.458029 L 557.401922 34.458029 L 557.401922 45.400383 L 585.152336 45.400383 C 586.956722 45.400383 588.256344 45.806515 589.0454 46.612977 C 589.851862 47.425241 590.257994 48.736467 590.257994 50.540853 L 590.257994 65.753394 C 590.257994 67.55778 589.851862 68.869006 589.0454 69.675468 C 588.256344 70.487732 586.956722 70.893864 585.152336 70.893864 L 557.401922 70.893864 L 557.401922 83.118435 L 596.680681 83.118435 C 598.467661 83.118435 599.761481 83.524567 600.573745 84.331029 C 601.386009 85.120085 601.786339 86.419707 601.786339 88.224093 L 601.786339 104.892908 C 601.786339 106.679888 601.386009 107.973708 600.573745 108.785972 C 599.761481 109.592434 598.467661 109.998566 596.680681 109.998566 Z M 650.713632 33.175812 L 650.713632 51.370522 L 661.406505 51.370522 C 663.860702 51.370522 665.520041 50.738117 666.372918 49.461702 C 667.231597 48.19109 667.660937 46.601373 667.660937 44.704157 L 667.660937 39.876989 C 667.660937 37.979773 667.231597 36.390056 666.372918 35.119443 C 665.520041 33.819821 663.860702 33.175812 661.406505 33.175812 Z M 645.607973 109.998566 L 623.688453 109.998566 C 621.884067 109.998566 620.578643 109.592434 619.766379 108.785972 C 618.977323 107.973708 618.582795 106.679888 618.582795 104.892908 L 618.582795 12.683556 C 618.582795 10.902377 618.977323 9.602755 619.766379 8.790491 C 620.578643 7.984029 621.884067 7.577897 623.688453 7.577897 L 671.066643 7.577897 C 681.689894 7.577897 689.017674 9.788415 693.049984 14.209451 C 697.076492 18.60728 699.089746 24.316334 699.089746 31.330813 L 699.089746 37.863735 C 699.089746 41.843828 698.503755 45.23793 697.320171 48.040241 C 696.142388 50.842551 694.076917 52.855805 691.141164 54.080002 C 696.258426 54.660191 700.400972 56.754671 703.574603 60.369245 C 706.742432 63.95481 708.332148 68.741365 708.332148 74.711504 L 708.332148 104.892908 C 708.332148 106.679888 707.926016 107.973708 707.113752 108.785972 C 706.330498 109.592434 705.030876 109.998566 703.226489 109.998566 L 681.173526 109.998566 C 679.363338 109.998566 678.057914 109.592434 677.24565 108.785972 C 676.433386 107.973708 676.033056 106.679888 676.033056 104.892908 L 676.033056 83.118435 C 676.033056 81.035558 675.626924 79.492257 674.814661 78.500135 C 674.025604 77.502211 672.638954 77.003248 670.648907 77.003248 L 650.713632 77.003248 L 650.713632 104.892908 C 650.713632 106.679888 650.3075 107.973708 649.495236 108.785972 C 648.70618 109.592434 647.41236 109.998566 645.607973 109.998566 Z M 645.607973 109.998566 " stroke="#4261f1" stroke-width="5.334825" stroke-opacity="1" stroke-miterlimit="4"/><path id="b2" stroke-linecap="butt" transform="matrix(0.673273, 0, 0, 0.673273, 195.532958, 176.749572)" fill="none" stroke-linejoin="miter" d="M 102.830065 227.997295 L 79.802385 227.997295 C 77.997999 227.997295 76.692575 227.596965 75.880311 226.784701 C 75.068047 225.972437 74.661915 224.678617 74.661915 222.891637 L 74.661915 153.013739 L 53.757725 153.013739 C 51.947537 153.013739 50.642113 152.61921 49.829849 151.835956 C 49.046595 151.023692 48.652067 149.712466 48.652067 147.90808 L 48.652067 130.682285 C 48.652067 128.901106 49.046595 127.601484 49.829849 126.795022 C 50.642113 125.982758 51.947537 125.576626 53.757725 125.576626 L 128.880527 125.576626 C 130.684913 125.576626 131.984535 125.982758 132.76779 126.795022 C 133.580054 127.601484 133.986186 128.901106 133.986186 130.682285 L 133.986186 147.90808 C 133.986186 149.712466 133.580054 151.023692 132.76779 151.835956 C 131.984535 152.61921 130.684913 153.013739 128.880527 153.013739 L 107.970535 153.013739 L 107.970535 222.891637 C 107.970535 224.678617 107.564403 225.972437 106.757941 226.784701 C 105.945677 227.596965 104.640253 227.997295 102.830065 227.997295 Z M 174.959095 227.997295 L 152.906131 227.997295 C 151.101745 227.997295 149.790519 227.596965 148.984057 226.784701 C 148.195001 225.972437 147.800473 224.678617 147.800473 222.891637 L 147.800473 130.682285 C 147.800473 128.901106 148.195001 127.601484 148.984057 126.795022 C 149.790519 125.982758 151.101745 125.576626 152.906131 125.576626 L 174.959095 125.576626 C 176.769283 125.576626 178.063103 125.982758 178.852159 126.795022 C 179.664423 127.601484 180.064753 128.901106 180.064753 130.682285 L 180.064753 161.559915 L 203.82347 161.559915 L 203.82347 130.682285 C 203.82347 128.901106 204.229602 127.601484 205.036064 126.795022 C 205.848328 125.982758 207.159554 125.576626 208.96394 125.576626 L 231.016904 125.576626 C 232.82129 125.576626 234.120912 125.982758 234.909968 126.795022 C 235.71643 127.601484 236.122562 128.901106 236.122562 130.682285 L 236.122562 222.891637 C 236.122562 224.678617 235.71643 225.972437 234.909968 226.784701 C 234.120912 227.596965 232.82129 227.997295 231.016904 227.997295 L 208.96394 227.997295 C 207.159554 227.997295 205.848328 227.596965 205.036064 226.784701 C 204.229602 225.972437 203.82347 224.678617 203.82347 222.891637 L 203.82347 191.288771 L 180.064753 191.288771 L 180.064753 222.891637 C 180.064753 224.678617 179.664423 225.972437 178.852159 226.784701 C 178.063103 227.596965 176.769283 227.997295 174.959095 227.997295 Z M 326.898849 227.997295 L 260.873402 227.997295 C 259.069016 227.997295 257.75779 227.596965 256.951328 226.784701 C 256.162271 225.972437 255.767743 224.678617 255.767743 222.891637 L 255.767743 130.682285 C 255.767743 128.901106 256.162271 127.601484 256.951328 126.795022 C 257.75779 125.982758 259.069016 125.576626 260.873402 125.576626 L 326.898849 125.576626 C 328.680027 125.576626 329.979649 125.982758 330.786111 126.795022 C 331.598375 127.601484 332.004507 128.901106 332.004507 130.682285 L 332.004507 147.351099 C 332.004507 149.13808 331.598375 150.4319 330.786111 151.244164 C 329.979649 152.056428 328.680027 152.456758 326.898849 152.456758 L 287.62009 152.456758 L 287.62009 163.399112 L 315.370504 163.399112 C 317.17489 163.399112 318.46871 163.805244 319.257767 164.617508 C 320.07003 165.42397 320.476162 166.735196 320.476162 168.539582 L 320.476162 183.752123 C 320.476162 185.556509 320.07003 186.867735 319.257767 187.674197 C 318.46871 188.486461 317.17489 188.892593 315.370504 188.892593 L 287.62009 188.892593 L 287.62009 201.117164 L 326.898849 201.117164 C 328.680027 201.117164 329.979649 201.523296 330.786111 202.33556 C 331.598375 203.118814 332.004507 204.418436 332.004507 206.222822 L 332.004507 222.891637 C 332.004507 224.678617 331.598375 225.972437 330.786111 226.784701 C 329.979649 227.596965 328.680027 227.997295 326.898849 227.997295 Z M 407.098299 227.997295 L 385.909817 227.997295 C 384.105431 227.997295 382.800007 227.596965 381.987743 226.784701 C 381.198687 225.972437 380.804158 224.678617 380.804158 222.891637 L 380.804158 130.682285 C 380.804158 128.901106 381.198687 127.601484 381.987743 126.795022 C 382.800007 125.982758 384.105431 125.576626 385.909817 125.576626 L 408.833063 125.576626 C 410.341553 125.576626 411.588958 125.913136 412.586882 126.586154 C 413.579004 127.230163 414.507306 128.320918 415.365985 129.846813 L 428.182348 153.013739 C 428.646499 153.872418 429.035225 154.499021 429.360131 154.887747 C 429.708244 155.259068 430.160791 155.444728 430.717772 155.444728 L 431.999988 155.444728 C 432.580177 155.444728 433.032724 155.259068 433.357629 154.887747 C 433.682535 154.499021 434.082865 153.872418 434.570223 153.013739 L 447.21253 129.846813 C 448.071208 128.320918 448.993708 127.230163 449.991632 126.586154 C 450.989556 125.913136 452.248565 125.576626 453.780263 125.576626 L 476.802141 125.576626 C 478.612329 125.576626 479.917753 125.982758 480.730017 126.795022 C 481.542281 127.601484 481.942611 128.901106 481.942611 130.682285 L 481.942611 222.891637 C 481.942611 224.678617 481.542281 225.972437 480.730017 226.784701 C 479.917753 227.596965 478.612329 227.997295 476.802141 227.997295 L 454.923234 227.997295 C 453.118848 227.997295 451.807622 227.596965 451.00116 226.784701 C 450.188896 225.972437 449.782764 224.678617 449.782764 222.891637 L 449.782764 172.809769 L 441.410645 188.300801 C 440.557768 189.925328 439.525032 191.091507 438.324042 191.810941 C 437.140458 192.507167 435.649374 192.849478 433.839186 192.849478 L 428.182348 192.849478 C 426.37216 192.849478 424.869472 192.507167 423.66268 191.810941 C 422.484897 191.091507 421.475369 189.925328 420.6457 188.300801 L 412.238769 172.809769 L 412.238769 222.891637 C 412.238769 224.678617 411.832637 225.972437 411.020373 226.784701 C 410.213911 227.596965 408.902685 227.997295 407.098299 227.997295 Z M 588.337571 201.117164 C 588.337571 205.468577 587.699363 209.431264 586.428751 212.993622 C 585.152336 216.538573 582.872195 219.572959 579.582527 222.096779 C 576.321868 224.620598 571.813803 226.587437 566.075739 227.997295 C 560.331874 229.412955 553.050508 230.120785 544.225842 230.120785 C 535.406977 230.120785 528.102405 229.412955 522.312124 227.997295 C 516.545051 226.587437 512.019581 224.620598 508.729912 222.096779 C 505.469253 219.572959 503.200716 216.538573 501.924301 212.993622 C 500.653689 209.431264 500.015481 205.468577 500.015481 201.117164 L 500.015481 152.596003 C 500.015481 148.244589 500.653689 144.299308 501.924301 140.754356 C 503.200716 137.186197 505.469253 134.122802 508.729912 131.552567 C 512.019581 128.982333 516.545051 126.986484 522.312124 125.576626 C 528.102405 124.143561 535.406977 123.424127 544.225842 123.424127 C 553.050508 123.424127 560.331874 124.143561 566.075739 125.576626 C 571.813803 126.986484 576.321868 128.982333 579.582527 131.552567 C 582.872195 134.122802 585.152336 137.186197 586.428751 140.754356 C 587.699363 144.299308 588.337571 148.244589 588.337571 152.596003 Z M 532.279762 195.976694 C 532.279762 197.87391 532.987591 199.47523 534.397449 200.769051 C 535.836317 202.045465 539.10858 202.677871 544.225842 202.677871 C 549.366312 202.677871 552.644377 202.045465 554.054234 200.769051 C 555.469894 199.47523 556.177724 197.87391 556.177724 195.976694 L 556.177724 157.736473 C 556.177724 155.932087 555.469894 154.394587 554.054234 153.118173 C 552.644377 151.824352 549.366312 151.174541 544.225842 151.174541 C 539.10858 151.174541 535.836317 151.824352 534.397449 153.118173 C 532.987591 154.394587 532.279762 155.932087 532.279762 157.736473 Z M 659.45127 227.997295 L 611.521901 227.997295 C 609.717515 227.997295 608.406289 227.596965 607.594026 226.784701 C 606.810771 225.972437 606.416243 224.678617 606.416243 222.891637 L 606.416243 130.682285 C 606.416243 128.901106 606.810771 127.601484 607.594026 126.795022 C 608.406289 125.982758 609.717515 125.576626 611.521901 125.576626 L 659.45127 125.576626 C 671.30452 125.576626 680.105979 127.949597 685.844043 132.695539 C 691.587909 137.418273 694.459842 144.711242 694.459842 154.580247 L 694.459842 198.964665 C 694.459842 208.827868 691.587909 216.132441 685.844043 220.878383 C 680.105979 225.624324 671.30452 227.997295 659.45127 227.997295 Z M 638.680523 152.735248 L 638.680523 201.117164 L 655.627828 201.117164 C 657.896365 201.117164 659.578912 200.548579 660.663864 199.417212 C 661.754618 198.280042 662.299995 196.522071 662.299995 194.137497 L 662.299995 159.581472 C 662.299995 157.196897 661.754618 155.456332 660.663864 154.37138 C 659.578912 153.280625 657.896365 152.735248 655.627828 152.735248 Z M 783.663818 227.997295 L 717.638371 227.997295 C 715.833985 227.997295 714.522759 227.596965 713.716297 226.784701 C 712.927241 225.972437 712.532712 224.678617 712.532712 222.891637 L 712.532712 130.682285 C 712.532712 128.901106 712.927241 127.601484 713.716297 126.795022 C 714.522759 125.982758 715.833985 125.576626 717.638371 125.576626 L 783.663818 125.576626 C 785.444996 125.576626 786.744618 125.982758 787.556882 126.795022 C 788.363344 127.601484 788.769476 128.901106 788.769476 130.682285 L 788.769476 147.351099 C 788.769476 149.13808 788.363344 150.4319 787.556882 151.244164 C 786.744618 152.056428 785.444996 152.456758 783.663818 152.456758 L 744.385059 152.456758 L 744.385059 163.399112 L 772.135473 163.399112 C 773.939859 163.399112 775.233679 163.805244 776.022736 164.617508 C 776.834999 165.42397 777.241131 166.735196 777.241131 168.539582 L 777.241131 183.752123 C 777.241131 185.556509 776.834999 186.867735 776.022736 187.674197 C 775.233679 188.486461 773.939859 188.892593 772.135473 188.892593 L 744.385059 188.892593 L 744.385059 201.117164 L 783.663818 201.117164 C 785.444996 201.117164 786.744618 201.523296 787.556882 202.33556 C 788.363344 203.118814 788.769476 204.418436 788.769476 206.222822 L 788.769476 222.891637 C 788.769476 224.678617 788.363344 225.972437 787.556882 226.784701 C 786.744618 227.596965 785.444996 227.997295 783.663818 227.997295 Z M 783.663818 227.997295 " stroke="#4261f1" stroke-width="5.334825" stroke-opacity="1" stroke-miterlimit="4"/><path id="bl" stroke-linecap="butt" transform="matrix(0.749742, 0, 0, 0.749742, 185.937942, 564.861898)" fill="none" stroke-linejoin="miter" d="M 31.953109 8.301574 C 31.525878 8.437038 30.843352 8.54124 29.973261 8.54124 L 19.782256 8.54124 C 18.985107 8.54124 17.479381 8.405777 17.109462 8.353676 L 17.109462 10.755543 C 17.401229 10.734703 18.849644 10.62529 19.782256 10.62529 L 30.077464 10.62529 C 29.420988 12.787492 27.493241 15.934408 25.690538 17.966357 C 22.970853 21.00386 19.063259 24.150775 14.817007 25.812805 L 16.505087 27.579038 C 20.412681 25.812805 23.976407 22.905555 26.800295 19.868052 C 29.49914 22.27513 32.296977 25.385575 34.068419 27.714501 L 35.912804 26.104572 C 34.198673 24.041363 30.973605 20.60789 28.201818 18.232073 C 30.077464 15.851046 31.739493 12.761442 32.635635 10.495037 C 32.797149 10.125118 33.141017 9.546794 33.302531 9.333179 Z M 60.343081 7.004253 L 59.577193 8.95805 C 63.21907 9.437382 70.138116 10.943108 73.363184 12.104966 L 74.207224 10.067807 C 70.883164 8.905949 63.776554 7.457534 60.343081 7.004253 Z M 59.149962 13.980611 L 58.358023 15.960458 C 62.109313 16.517942 68.554238 17.966357 71.623002 19.185526 L 72.467042 17.148367 C 69.163823 15.934408 62.770999 14.590195 59.149962 13.980611 Z M 57.701548 21.665546 L 56.883558 23.671444 C 61.166281 24.35397 69.002309 26.130623 72.519144 27.65719 L 73.415285 25.625241 C 69.799458 24.176826 62.135364 22.353282 57.701548 21.665546 Z M 110.704152 20.560999 C 112.819462 18.367536 114.877462 15.064317 116.096631 12.870854 C 116.273775 12.526986 116.565542 12.078915 116.753107 11.813199 L 115.190069 10.59924 C 114.877462 10.781594 114.37208 10.943108 113.793756 11.073361 C 112.683999 11.313027 108.062618 12.26127 103.57149 13.136571 L 103.57149 9.015361 C 103.57149 8.249473 103.623591 7.353332 103.759055 6.587443 L 101.252984 6.587443 C 101.378027 7.353332 101.430129 8.223422 101.430129 9.015361 L 101.430129 13.53254 C 98.632291 14.058763 96.126221 14.512044 94.938313 14.663137 L 95.360333 16.882651 C 96.417988 16.642985 98.767755 16.148023 101.430129 15.6218 L 101.430129 23.593292 C 101.430129 26.208775 102.33669 27.474835 107.239418 27.474835 C 110.542638 27.474835 113.184171 27.26643 115.539148 26.948613 L 115.64335 24.676998 C 113.001817 25.17717 110.464486 25.437676 107.400932 25.437676 C 104.238386 25.437676 103.57149 24.859352 103.57149 23.041019 L 103.57149 15.19457 C 108.244972 14.246327 113.111229 13.266824 113.55409 13.162621 C 112.767361 14.741289 110.839615 17.648539 108.854557 19.451242 Z M 152.958267 11.917401 L 152.958267 8.619392 C 152.958267 7.587787 153.06247 6.717696 153.09373 6.45198 L 150.712703 6.45198 C 150.764804 6.717696 150.842956 7.587787 150.842956 8.619392 L 150.842956 11.917401 L 143.319536 11.917401 L 143.319536 8.54124 C 143.319536 7.619048 143.423738 6.874 143.454999 6.613494 L 141.100022 6.613494 C 141.126073 6.874 141.204225 7.6972 141.204225 8.54124 L 141.204225 11.917401 L 138.380337 11.917401 C 137.244529 11.917401 135.947208 11.787148 135.712753 11.740257 L 135.712753 14.032712 C 136.03057 14.006661 137.218479 13.923299 138.380337 13.923299 L 141.204225 13.923299 L 141.204225 18.206022 C 141.204225 19.211577 141.126073 20.347384 141.100022 20.60789 L 143.423738 20.60789 C 143.397687 20.347384 143.319536 19.185526 143.319536 18.206022 L 143.319536 13.923299 L 150.842956 13.923299 L 150.842956 15.038266 C 150.842956 22.426224 148.446299 24.703049 143.632143 26.547433 L 145.408796 28.214673 C 151.457751 25.521038 152.958267 21.900001 152.958267 14.850702 L 152.958267 13.923299 L 155.865517 13.923299 C 157.027375 13.923299 158.001668 13.980611 158.262175 14.006661 L 158.262175 11.787148 C 157.923517 11.839249 157.027375 11.917401 155.865517 11.917401 Z M 195.5302 6.373828 C 194.050525 8.249473 191.278738 10.547138 188.585104 12.209168 C 185.683064 14.032712 181.186726 16.03861 176.77896 17.070215 L 177.998129 19.128215 C 181.452442 18.10182 185.09432 16.570043 187.928628 15.007006 L 187.928628 24.994816 C 187.928628 25.99516 187.840056 27.318531 187.767114 27.818703 L 190.351336 27.818703 C 190.247133 27.292481 190.195032 25.99516 190.195032 24.994816 L 190.195032 13.694054 C 192.914718 11.969503 195.452049 9.812511 197.275592 7.957706 Z M 217.5534 25.411626 C 218.449541 25.364734 219.371734 25.286583 220.330397 25.286583 L 236.143127 25.286583 C 236.862124 25.286583 237.758266 25.338684 238.550205 25.411626 L 238.550205 22.879505 C 237.784316 22.983707 236.940276 23.014968 236.143127 23.014968 L 220.330397 23.014968 C 219.371734 23.014968 218.449541 22.957657 217.5534 22.879505 Z M 219.825014 12.183118 C 220.643004 12.131016 221.513095 12.104966 222.445707 12.104966 L 233.746469 12.104966 C 234.61656 12.104966 235.616904 12.131016 236.356742 12.183118 L 236.356742 9.812511 C 235.616904 9.885452 234.694712 9.937554 233.746469 9.937554 L 222.409237 9.937554 C 221.565196 9.937554 220.669055 9.885452 219.825014 9.812511 Z M 272.853669 14.77255 L 272.801568 12.636399 C 272.801568 12.026814 272.827618 11.417229 272.90577 10.859746 L 270.660206 10.859746 C 270.769619 11.44328 270.847771 12.104966 270.847771 12.636399 C 270.873821 13.136571 270.899872 13.871198 270.925923 14.77255 L 262.975272 14.77255 C 262.344846 14.77255 261.636269 14.741289 261.021475 14.663137 L 261.021475 16.752397 C 261.66232 16.705506 262.318796 16.669035 263.032583 16.669035 L 270.081882 16.669035 C 268.289599 19.36788 264.272593 22.853454 260.312898 24.75515 L 261.787363 26.396339 C 265.382349 24.489433 269.185741 21.139323 270.978024 18.596782 C 271.035335 21.405039 271.061386 24.35397 271.061386 26.02121 C 271.061386 26.495332 270.82172 26.787099 270.347599 26.787099 C 269.55045 26.787099 268.180187 26.708947 267.122531 26.547433 L 267.231944 28.475179 C 268.289599 28.532491 270.003731 28.636693 271.061386 28.636693 C 272.223244 28.636693 273.067284 27.948957 273.041234 26.813149 C 273.015183 24.33313 272.937031 20.003516 272.87972 16.669035 L 276.709162 16.669035 C 277.214544 16.669035 277.954382 16.726347 278.428503 16.752397 L 278.428503 14.663137 C 278.058584 14.715239 277.188493 14.77255 276.657061 14.77255 Z M 318.171338 10.067807 C 317.82747 10.20327 317.327298 10.281422 316.353005 10.281422 L 310.434302 10.281422 L 310.434302 7.822243 C 310.434302 7.26997 310.460353 6.665595 310.595816 5.842395 L 308.058485 5.842395 C 308.162688 6.665595 308.188738 7.26997 308.188738 7.822243 L 308.188738 10.281422 L 302.353398 10.281422 C 301.431206 10.281422 300.665318 10.255371 299.899429 10.177219 C 299.972371 10.755543 299.972371 11.656895 299.972371 12.209168 L 299.972371 16.8566 C 299.972371 17.361982 299.95153 18.075769 299.899429 18.51863 L 302.191884 18.51863 C 302.113732 18.127871 302.087682 17.440134 302.087682 16.966013 L 302.087682 12.235219 L 316.853177 12.235219 C 316.618721 14.512044 315.769471 17.70064 314.347106 19.946204 C 312.737178 22.452274 309.824718 24.416492 307.188394 25.260532 C 306.339144 25.573139 305.3388 25.864907 304.442658 25.99516 L 306.15679 27.980217 C 310.986576 26.656846 314.638873 23.963211 316.618721 20.472427 C 318.093186 17.966357 318.859075 14.663137 319.202943 12.553037 C 319.312356 12.052865 319.46866 11.365128 319.604123 10.969158 Z M 359.133343 9.749989 C 358.58107 8.692334 357.627617 7.087615 356.971141 6.134162 L 355.569617 6.743747 C 356.278194 7.749301 357.179546 9.333179 357.710979 10.390835 Z M 345.71727 11.630844 C 346.144501 10.682602 346.457108 9.723939 346.722825 8.95805 C 346.905179 8.405777 347.165685 7.72325 347.405351 7.113666 L 344.84718 6.613494 C 344.795078 7.379382 344.633564 8.087959 344.446 8.728805 C 344.159443 9.723939 343.685322 11.099412 342.971534 12.422783 C 342.049342 14.032712 340.173697 16.726347 338.272002 18.10182 L 340.361262 19.34183 C 341.887828 18.075769 343.685322 15.668691 344.742977 13.694054 L 351.52656 13.694054 C 351.135801 20.399485 348.275442 23.859008 345.69122 25.812805 C 345.112896 26.281717 344.315747 26.734997 343.549858 27.026764 L 345.795422 28.558541 C 350.338652 25.651291 353.298003 21.243525 353.720023 13.694054 L 358.17989 13.694054 C 358.794685 13.694054 359.84192 13.720105 360.66512 13.766996 L 360.66512 11.500591 C 359.904441 11.604794 358.846786 11.630844 358.17989 11.630844 Z M 358.471657 5.691302 C 359.237545 6.665595 360.081586 8.171321 360.66512 9.307129 L 362.092694 8.671493 C 361.592522 7.6972 360.560917 6.05601 359.878391 5.076507 Z M 392.514615 12.735391 L 392.514615 9.197716 C 392.514615 8.405777 392.592767 7.087615 392.670919 6.561393 L 390.060646 6.561393 C 390.190899 7.087615 390.300312 8.379726 390.300312 9.171665 L 390.300312 12.735391 L 382.505965 12.735391 C 381.557722 12.735391 380.599059 12.662449 380.072836 12.610348 L 380.072836 14.876752 C 380.599059 14.824651 381.557722 14.798601 382.552856 14.798601 L 390.300312 14.798601 C 390.269051 20.237971 388.106849 24.124725 383.1416 26.469281 L 385.1996 28.006268 C 390.529558 24.885403 392.514615 20.60789 392.514615 14.798601 L 399.511814 14.798601 C 400.329803 14.798601 401.413509 14.824651 401.84074 14.876752 L 401.84074 12.636399 C 401.413509 12.6885 400.407955 12.735391 399.537864 12.735391 Z M 440.208102 9.119564 C 439.70793 8.087959 438.728426 6.478031 438.07195 5.503737 L 436.675637 6.108112 C 437.384214 7.139716 438.254305 8.692334 438.780527 9.749989 Z M 437.332113 8.780906 C 436.904882 8.905949 436.222356 8.989311 435.352265 8.989311 L 425.15605 8.989311 C 424.364111 8.989311 422.853175 8.879898 422.488466 8.827797 L 422.488466 11.208824 C 422.780233 11.182774 424.228648 11.073361 425.15605 11.073361 L 435.456468 11.073361 C 434.794782 13.266824 432.867035 16.413739 431.069542 18.445688 C 428.349857 21.483191 424.442263 24.619687 420.190801 26.281717 L 421.884091 28.032319 C 425.791685 26.260876 429.355411 23.384887 432.179299 20.321333 C 434.872933 22.749252 437.670771 25.838856 439.447423 28.188622 L 441.291808 26.573484 C 439.572466 24.515484 436.352609 21.082012 433.580822 18.706194 C 435.456468 16.330377 437.118497 13.240773 438.014639 10.943108 C 438.176153 10.59924 438.514811 10.015706 438.676325 9.812511 Z M 439.681879 5.185919 C 440.395666 6.160213 441.265757 7.671149 441.844081 8.806956 L 443.276865 8.171321 C 442.771483 7.191818 441.765929 5.555838 441.057352 4.581545 Z M 481.935995 16.43979 C 481.383721 16.590884 480.643884 16.752397 479.63833 16.966013 C 478.314958 17.200468 475.808887 17.622488 473.120463 18.075769 L 472.062807 12.761442 C 474.594928 12.370682 477.002006 11.969503 478.210755 11.787148 C 478.903702 11.677735 479.721692 11.578743 480.112451 11.526642 L 479.66438 9.307129 C 479.216309 9.437382 478.554623 9.624946 477.788735 9.749989 C 476.678978 9.963604 474.25106 10.364784 471.687678 10.781594 C 471.369861 9.307129 471.192716 8.223422 471.130195 7.931655 C 471.057253 7.353332 470.927 6.613494 470.895739 6.108112 L 468.519922 6.535342 C 468.702277 7.061565 468.889841 7.645099 469.025304 8.327625 C 469.103456 8.645443 469.285811 9.677047 469.577578 11.099412 C 467.097558 11.500591 464.794683 11.839249 463.768288 11.943452 C 462.919038 12.052865 462.236511 12.104966 461.574825 12.131016 L 462.022896 14.512044 C 462.60122 14.35053 463.315007 14.189016 464.164258 14.058763 C 465.169812 13.871198 467.462267 13.506489 469.973547 13.11052 L 471.031203 18.419638 C 468.01975 18.893759 465.143761 19.34183 463.820389 19.529394 C 463.132653 19.628387 462.101048 19.737799 461.491463 19.76385 L 461.970795 22.061515 C 462.549119 21.900001 463.268116 21.743697 464.289301 21.582184 C 465.586622 21.347728 468.41051 20.873607 471.395911 20.373435 C 471.901294 22.983707 472.323314 25.125069 472.427516 25.703393 C 472.615081 26.495332 472.693233 27.292481 472.823486 28.188622 L 475.225353 27.740552 C 474.985688 27.000714 474.782493 26.104572 474.594928 25.338684 C 474.459465 24.729099 474.037445 22.613788 473.511222 20.029566 C 476.095444 19.628387 478.554623 19.237627 480.008248 18.997961 C 480.982542 18.836448 481.826582 18.706194 482.384066 18.654093 Z M 520.652435 9.911503 C 520.100162 8.853848 519.141499 7.243919 518.485023 6.321727 L 517.08871 6.900051 C 517.797287 7.905605 518.698638 9.489483 519.230071 10.573189 Z M 506.491315 17.466185 C 509.768484 16.616934 514.342974 15.220621 517.302325 14.032712 C 518.089054 13.740945 519.042507 13.318925 519.782344 13.001107 L 518.854942 10.885796 C 518.120314 11.339077 517.349216 11.740257 516.531226 12.078915 C 513.78549 13.266824 509.61218 14.538094 506.491315 15.298773 L 506.491315 9.333179 C 506.491315 8.593341 506.543416 7.796192 506.626778 7.191818 L 504.172809 7.191818 C 504.303062 7.796192 504.329113 8.692334 504.329113 9.333179 L 504.329113 23.859008 C 504.329113 25.99516 505.47013 26.922562 507.496869 27.292481 C 508.580575 27.474835 510.169663 27.552987 511.722281 27.552987 C 514.60348 27.552987 518.563175 27.339372 520.86605 27.000714 L 520.86605 24.593636 C 518.672588 25.17717 514.629531 25.437676 511.831693 25.437676 C 510.534372 25.437676 509.164109 25.364734 508.34612 25.234481 C 507.048798 24.968765 506.491315 24.619687 506.491315 23.275474 Z M 519.990749 5.842395 C 520.730587 6.85316 521.600678 8.327625 522.179002 9.489483 L 523.611786 8.827797 C 523.111614 7.848293 522.08001 6.212314 521.387063 5.238021 Z M 561.687382 9.067463 C 561.161159 7.983757 560.186866 6.399879 559.53039 5.451636 L 558.123656 6.05601 C 558.837443 7.061565 559.733585 8.645443 560.265018 9.703098 Z M 553.398072 10.59924 L 553.398072 8.14006 C 553.398072 7.587787 553.450174 6.978203 553.559586 6.160213 L 551.022255 6.160213 C 551.152508 6.978203 551.178559 7.587787 551.178559 8.14006 L 551.178559 10.59924 L 545.317168 10.59924 C 544.394976 10.59924 543.629088 10.573189 542.863199 10.495037 C 542.936141 11.073361 542.962192 11.969503 542.962192 12.526986 L 542.962192 17.148367 C 542.962192 17.67459 542.91009 18.393587 542.863199 18.836448 L 545.155654 18.836448 C 545.103553 18.445688 545.077502 17.752742 545.077502 17.28383 L 545.077502 12.553037 L 559.816947 12.553037 C 559.582491 14.824651 558.759291 18.018458 557.305666 20.237971 C 555.700948 22.749252 552.788488 24.729099 550.146954 25.573139 C 549.302914 25.890957 548.30257 26.182724 547.432479 26.318187 L 549.14661 28.271984 C 553.976396 26.974663 557.602644 24.281028 559.582491 20.790245 C 561.056957 18.284174 561.822845 14.980955 562.166713 12.870854 C 562.270916 12.370682 562.427219 11.656895 562.562683 11.286976 L 561.135108 10.390835 C 560.79124 10.495037 560.317119 10.59924 559.316775 10.59924 Z M 561.21847 5.238021 C 561.953098 6.212314 562.828399 7.72325 563.411933 8.853848 L 564.834297 8.223422 C 564.334125 7.243919 563.302521 5.60794 562.614784 4.633646 Z M 605.582687 8.879898 C 605.082515 7.905605 604.103011 6.347777 603.420485 5.368274 L 602.013751 5.977858 C 602.753589 6.952152 603.576789 8.379726 604.155112 9.515534 Z M 602.414931 9.677047 C 601.857447 8.593341 600.961306 7.087615 600.29962 6.134162 L 598.872045 6.717696 C 599.591043 7.72325 600.461134 9.223767 600.987356 10.307473 Z M 587.091952 16.413739 C 586.060348 18.544681 583.793943 21.691596 582.053761 23.332786 L 583.872095 24.567585 C 585.351771 22.931606 587.837 19.576285 588.946757 17.309881 Z M 601.596941 13.240773 C 602.227366 13.240773 603.019305 13.240773 603.738302 13.292874 L 603.738302 11.099412 C 603.071406 11.208824 602.201316 11.234875 601.57089 11.234875 L 594.594533 11.234875 L 594.594533 8.54124 C 594.594533 7.957706 594.677895 7.004253 594.756047 6.639544 L 592.270817 6.639544 C 592.375019 7.030304 592.458381 7.931655 592.458381 8.515189 L 592.458381 11.234875 L 585.117315 11.234875 C 584.268064 11.234875 583.611589 11.182774 582.871751 11.099412 L 582.871751 13.318925 C 583.580328 13.266824 584.320166 13.240773 585.117315 13.240773 L 592.458381 13.240773 L 592.458381 25.151119 C 592.458381 25.838856 592.140564 26.156674 591.426777 26.156674 C 590.73904 26.156674 589.525081 26.052471 588.363223 25.838856 L 588.576838 27.948957 C 589.629283 28.058369 591.213161 28.136521 592.322918 28.136521 C 593.912006 28.136521 594.594533 27.427944 594.594533 26.02121 L 594.594533 13.240773 Z M 598.189519 17.388033 C 599.591043 19.050063 601.57089 22.353282 602.602495 24.416492 L 604.556292 23.332786 C 603.498637 21.43109 601.383326 18.127871 599.981802 16.43979 Z M 639.276567 9.093513 L 637.776051 9.749989 C 638.646142 10.943108 639.568334 12.584297 640.23002 13.980611 L 641.761796 13.266824 C 641.152212 12.026814 639.943463 10.041756 639.276567 9.093513 Z M 642.663148 7.749301 L 641.178262 8.437038 C 642.084824 9.624946 643.033067 11.208824 643.715593 12.610348 L 645.24737 11.8653 C 644.616945 10.656551 643.345674 8.671493 642.663148 7.749301 Z M 622.458282 20.055617 L 624.386029 22.009414 C 624.781998 21.483191 625.365532 20.659991 625.917806 19.972255 C 627.105714 18.51863 629.325227 15.6218 630.591288 14.084813 C 631.487429 12.975057 631.857348 12.949006 632.967105 13.871198 C 634.108122 14.824651 636.291165 17.200468 638.119919 19.237627 C 639.807999 21.165374 642.209867 23.885059 644.064672 26.260876 L 645.778803 24.380021 C 643.851057 22.113616 641.152212 19.237627 639.385979 17.335931 C 637.697899 15.512388 635.530487 13.188672 633.920558 11.8653 C 632.018862 10.281422 630.935156 10.468986 629.533632 12.131016 C 627.871603 14.084813 625.579147 17.018114 624.307877 18.310225 C 623.61493 18.997961 623.119968 19.477293 622.458282 20.055617 Z M 682.614388 6.373828 C 681.139923 8.249473 678.368136 10.547138 675.669291 12.209168 C 672.772462 14.032712 668.276124 16.03861 663.863148 17.070215 L 665.082317 19.128215 C 668.54184 18.10182 672.183718 16.570043 675.012816 15.007006 L 675.012816 24.994816 C 675.012816 25.99516 674.929454 27.318531 674.851302 27.818703 L 677.435524 27.818703 C 677.336532 27.292481 677.28443 25.99516 677.28443 24.994816 L 677.28443 13.694054 C 680.004116 11.969503 682.536237 9.812511 684.36499 7.957706 Z M 709.795612 7.004253 L 709.029723 8.95805 C 712.671601 9.437382 719.590647 10.943108 722.810505 12.104966 L 723.659755 10.067807 C 720.330485 8.905949 713.223874 7.457534 709.795612 7.004253 Z M 708.602493 13.980611 L 707.810554 15.960458 C 711.561844 16.517942 718.001559 17.966357 721.070323 19.185526 L 721.914363 17.148367 C 718.616354 15.934408 712.21832 14.590195 708.602493 13.980611 Z M 707.148868 21.665546 L 706.330878 23.671444 C 710.613601 24.35397 718.45484 26.130623 721.966464 27.65719 L 722.862606 25.625241 C 719.246779 24.176826 711.587895 22.353282 707.148868 21.665546 Z M 761.552996 9.572845 C 762.318884 9.572845 763.241076 9.598896 764.012175 9.650997 L 764.012175 7.457534 C 763.241076 7.561737 762.292834 7.619048 761.552996 7.619048 L 750.856609 7.619048 C 750.012568 7.619048 749.220629 7.535686 748.486002 7.457534 L 748.486002 9.650997 C 749.142477 9.598896 750.012568 9.572845 750.882659 9.572845 Z M 747.636751 14.220277 C 746.818762 14.220277 746.052873 14.162965 745.339086 14.084813 L 745.339086 16.278276 C 746.052873 16.226175 746.818762 16.226175 747.636751 16.226175 L 755.530091 16.226175 C 755.451939 18.706194 755.165382 20.925708 754.003524 22.775302 C 752.97192 24.442542 751.070224 25.969109 749.012224 26.813149 L 750.966021 28.245934 C 753.211585 27.104916 755.217484 25.203221 756.170936 23.436988 C 757.218172 21.483191 757.645402 19.076113 757.723554 16.226175 L 764.908316 16.226175 C 765.543952 16.226175 766.387992 16.252225 766.971526 16.278276 L 766.971526 14.084813 C 766.335891 14.189016 765.46059 14.220277 764.908316 14.220277 Z M 787.11908 27.631139 C 789.338594 25.812805 791.026674 23.223373 791.818613 20.399485 C 792.5324 17.752742 792.641813 12.104966 792.641813 9.171665 C 792.641813 8.379726 792.740805 7.587787 792.766856 7.26997 L 790.338938 7.26997 C 790.44835 7.822243 790.526502 8.405777 790.526502 9.197716 C 790.526502 12.131016 790.500452 17.388033 789.729353 19.815951 C 788.937414 22.379333 787.353536 24.729099 785.134023 26.318187 Z M 798.628247 27.605088 C 798.893963 27.391473 799.133629 27.214329 799.534809 27.000714 C 802.593152 25.463727 806.266291 22.775302 808.532695 19.680488 L 807.271845 17.888205 C 805.255526 20.873607 802.014828 23.275474 799.5817 24.380021 L 799.5817 9.145615 C 799.5817 8.14006 799.659852 7.405433 799.685902 7.191818 L 797.257984 7.191818 C 797.284035 7.405433 797.419498 8.14006 797.419498 9.145615 L 797.419498 24.968765 C 797.419498 25.500198 797.341346 26.02121 797.231933 26.44323 Z M 798.628247 27.605088 " stroke="#902bf5" stroke-width="0.990525" stroke-opacity="1" stroke-miterlimit="4"/></svg>